<?xml version="1.0" encoding="utf-8"?>
<!-- Generator: Adobe Illustrator 27.9.0, SVG Export Plug-In . SVG Version: 6.00 Build 0)  -->
<svg version="1.1" id="Layer_1" xmlns="http://www.w3.org/2000/svg" xmlns:xlink="http://www.w3.org/1999/xlink" x="0px" y="0px"
	 viewBox="0 0 36 36" style="enable-background:new 0 0 36 36;" xml:space="preserve">
<style type="text/css">
	.st0{fill:#5D86B9;}
	.st1{fill:#FFFFFF;}
	.st2{fill:#AC1917;}
</style>
<g>
	<path class="st0" d="M-22,11.58c0,2.04-1.93,3.11-3.54,2.18c-1.33-0.77-2.64-1.56-3.96-2.34c-3.26-1.93-6.53-3.85-9.78-5.79
		c-0.5-0.3-0.9-0.3-1.4,0c-4.53,2.7-9.08,5.37-13.62,8.06c-0.61,0.36-1.25,0.54-1.94,0.35c-0.95-0.26-1.54-0.89-1.72-1.86
		c-0.18-0.94,0.26-1.87,1.11-2.38c1.65-0.99,3.3-1.96,4.96-2.93c3.51-2.07,7.03-4.14,10.54-6.23c0.92-0.55,1.81-0.55,2.73-0.01
		c4.82,2.86,9.64,5.7,14.46,8.55c0.37,0.22,0.75,0.43,1.12,0.67C-22.35,10.32-22.01,10.98-22,11.58z"/>
	<path class="st0" d="M-40,28c-5.22,0-10.44,0-15.66,0c-0.77,0-1.4-0.25-1.82-0.91c-0.75-1.16-0.05-2.71,1.31-2.93
		c0.19-0.03,0.38-0.04,0.58-0.04c10.4,0,20.8,0,31.21-0.01c0.67,0,1.27,0.16,1.72,0.69c0.51,0.61,0.61,1.31,0.29,2.04
		c-0.35,0.79-1,1.15-1.85,1.15c-1.85,0.01-3.7,0-5.55,0C-33.18,28-36.59,28-40,28z"/>
	<path class="st0" d="M-40.76,19.76c0,0.28,0,0.49,0,0.75c0.71,0.06,1.38,0.24,1.99,0.77c-1.87,0-3.67,0-5.53,0
		c0.57-0.53,1.23-0.7,1.96-0.77c0-0.24,0-0.47,0-0.76c-0.47,0-0.94,0-1.41,0c-0.52,0-1.04,0.01-1.56,0
		c-1.01-0.02-1.65-0.66-1.65-1.67c0-1.21,0-2.42,0-3.62c0-0.99,0.65-1.64,1.63-1.64c2.51,0,5.03,0,7.54,0
		c0.99,0,1.64,0.64,1.65,1.62c0.01,1.22,0.01,2.44,0,3.66c-0.01,1.02-0.67,1.66-1.69,1.65C-38.79,19.75-39.76,19.76-40.76,19.76z"/>
	<path class="st0" d="M-26.92,21.3c-2.54,0-5.05,0-7.6,0c-0.02-0.26-0.05-0.51-0.05-0.76c-0.01-0.99-0.01-1.98,0-2.97
		c0-0.61,0.28-0.89,0.89-0.89c1.98,0,3.96,0,5.94,0c0.59,0,0.88,0.28,0.89,0.86c0.01,1.09,0,2.17-0.01,3.26
		C-26.87,20.96-26.9,21.12-26.92,21.3z"/>
	<path class="st0" d="M-54.66,27.29c1.28,0,2.54,0,3.84,0c0,0.15,0,0.28,0,0.41c0,2.35,0,4.71,0,7.06c0,0.76-0.25,1.01-1.03,1.01
		c-0.66,0-1.33,0.01-1.99,0c-0.54-0.01-0.85-0.29-0.86-0.82c-0.01-2.52,0-5.04,0-7.57C-54.69,27.37-54.67,27.34-54.66,27.29z"/>
	<path class="st0" d="M-29.13,27.29c1.28,0,2.54,0,3.82,0c0.01,0.14,0.02,0.25,0.02,0.37c0,2.35,0,4.71,0,7.06
		c0,0.81-0.24,1.05-1.06,1.05c-0.65,0-1.3,0.01-1.96,0c-0.54-0.01-0.85-0.29-0.86-0.82c-0.01-2.52,0-5.04,0-7.57
		C-29.16,27.37-29.15,27.34-29.13,27.29z"/>
	<path class="st0" d="M-49.28,21.3c-2.07,0-4.1,0-6.14,0c-0.01-0.06-0.04-0.11-0.04-0.17c0-0.7-0.01-1.4,0-2.1
		c0.01-0.49,0.29-0.81,0.78-0.81c1.53-0.02,3.07-0.01,4.6,0c0.46,0,0.76,0.3,0.8,0.73c0.01,0.08,0,0.17,0,0.25
		C-49.28,19.89-49.28,20.58-49.28,21.3z"/>
</g>
<path class="st1" d="M77,38c-12,0-24,0-36,0c0-12,0-24,0-36c12,0,23.99,0,36,0C77,14,77,26,77,38z M58.93,35.63
	c3.45,0,6.9,0,10.35,0c1.52,0,2.45-0.92,2.45-2.45c0.01-3.83,0-7.65,0.01-11.48c0-0.26-0.08-0.44-0.27-0.61
	c-3.81-3.46-7.61-6.93-11.41-10.4c-0.73-0.66-1.46-0.66-2.19,0c-3.8,3.46-7.59,6.92-11.39,10.37c-0.21,0.19-0.3,0.38-0.3,0.67
	c0.01,3.81,0,7.63,0.01,11.44c0,1.53,0.93,2.45,2.45,2.45C52.08,35.63,55.51,35.63,58.93,35.63z M58.95,9.44
	c0.63-0.02,1.15,0.23,1.61,0.65c2.07,1.89,4.15,3.78,6.22,5.67c1.9,1.73,3.81,3.47,5.7,5.2c0.54,0.5,1.16,0.69,1.87,0.5
	c0.73-0.2,1.19-0.69,1.35-1.42c0.17-0.78-0.12-1.41-0.7-1.94c-4.82-4.39-9.63-8.78-14.45-13.17c-0.97-0.88-2.23-0.88-3.2,0.01
	c-4.83,4.4-9.65,8.79-14.47,13.2c-0.19,0.17-0.37,0.37-0.49,0.59c-0.46,0.79-0.24,1.82,0.48,2.4c0.7,0.57,1.76,0.55,2.48-0.1
	c1.13-1.01,2.25-2.04,3.38-3.07c2.89-2.63,5.78-5.26,8.66-7.9C57.84,9.67,58.34,9.43,58.95,9.44z"/>
<g>
	<path class="st0" d="M17.96,34.79c-3.67,0-7.34,0-11.02,0c-1.63,0-2.62-0.98-2.63-2.62c-0.01-4.09,0-7.17-0.01-11.26
		c0-0.3,0.09-0.51,0.32-0.71c4.07-3.7,8.13-7.41,12.2-11.11c0.78-0.71,1.56-0.71,2.34,0c4.08,3.71,8.15,7.43,12.23,11.14
		c0.2,0.18,0.29,0.38,0.29,0.65c-0.01,4.1,0,7.2-0.01,11.29c0,1.64-1,2.62-2.63,2.62C25.36,34.79,21.66,34.79,17.96,34.79z
		 M17.96,29.7c1.65,0,3.31,0.01,4.96,0c0.98,0,1.52-0.55,1.52-1.51c0-0.94,0-1.88,0-2.82c0-0.82,0-0.82-0.8-0.82
		c-0.86,0-0.86,0-0.89,0.85c-0.01,0.46-0.26,0.76-0.69,0.87c-1.01,0.24-1.55-0.17-1.55-1.2c0-0.04,0-0.08,0-0.11
		c0.04-0.31-0.09-0.41-0.4-0.4c-1.3,0.01-2.61,0-3.91,0.01c-0.79,0-0.69-0.07-0.7,0.67c0,0.09-0.01,0.18-0.02,0.26
		c-0.06,0.45-0.33,0.73-0.77,0.8c-0.7,0.11-1.19-0.06-1.39-0.48c-0.06-0.12-0.08-0.26-0.09-0.4c-0.01-0.19-0.01-0.38,0-0.56
		c0.01-0.21-0.08-0.29-0.29-0.28c-0.35,0.01-0.7,0.02-1.05,0c-0.29-0.02-0.36,0.09-0.36,0.37c0.01,1.05,0.01,2.11,0.01,3.16
		c0,1.12,0.51,1.63,1.63,1.63C14.78,29.7,16.37,29.7,17.96,29.7z M17.98,23.56c0.33,0,0.65,0,0.98,0c1.7,0,3.41-0.01,5.11,0.01
		c0.29,0,0.4-0.08,0.38-0.38c-0.02-0.39,0-0.78-0.01-1.16c-0.02-0.82-0.56-1.38-1.37-1.38c-3.38-0.01-6.77-0.01-10.15,0
		c-0.81,0-1.36,0.56-1.37,1.38c-0.01,0.38,0.02,0.75-0.01,1.13c-0.03,0.33,0.09,0.43,0.42,0.42C13.97,23.56,15.98,23.56,17.98,23.56
		z M18.03,17.41c-1.63-0.01-3.01,1.01-3.36,2.47c-0.06,0.24-0.11,0.5,0.22,0.58c0.3,0.07,0.38-0.15,0.45-0.38
		c0.36-1.23,1.4-2.01,2.68-2c1.27,0,2.3,0.77,2.66,1.98c0.03,0.1,0.05,0.22,0.11,0.27c0.1,0.07,0.25,0.14,0.36,0.12
		c0.09-0.02,0.19-0.15,0.22-0.26c0.03-0.11-0.01-0.25-0.04-0.37C20.93,18.38,19.61,17.42,18.03,17.41z"/>
	<path class="st0" d="M17.98,6.74c-0.65-0.01-1.19,0.24-1.66,0.68c-3.09,2.82-6.19,5.64-9.28,8.46c-1.2,1.1-2.4,2.2-3.62,3.29
		c-0.77,0.69-1.9,0.72-2.66,0.11c-0.77-0.63-1-1.73-0.51-2.58c0.13-0.23,0.33-0.45,0.53-0.63c5.16-4.72,10.33-9.43,15.5-14.14
		c1.04-0.94,2.39-0.95,3.43-0.01c5.16,4.7,10.32,9.41,15.48,14.11c0.62,0.57,0.94,1.24,0.75,2.08c-0.17,0.79-0.67,1.31-1.45,1.52
		c-0.76,0.21-1.43,0-2.01-0.53c-2.03-1.86-4.07-3.72-6.11-5.57c-2.22-2.03-4.45-4.05-6.67-6.08C19.22,6.98,18.66,6.71,17.98,6.74z"
		/>
</g>
<path class="st1" d="M58.93,30.88c-1.49,0-2.97,0-4.46,0c-1.05,0-1.53-0.47-1.53-1.52c0-0.98,0.01-1.97-0.01-2.95
	c0-0.26,0.07-0.36,0.33-0.34c0.33,0.02,0.65,0.01,0.98,0c0.19,0,0.28,0.07,0.27,0.27c-0.01,0.17-0.01,0.35,0,0.53
	c0.01,0.13,0.03,0.26,0.08,0.37c0.18,0.4,0.64,0.55,1.29,0.45c0.41-0.06,0.66-0.32,0.72-0.75c0.01-0.08,0.02-0.16,0.02-0.24
	c0.01-0.69-0.08-0.62,0.66-0.62c1.22,0,2.43,0.01,3.65-0.01c0.29,0,0.42,0.08,0.38,0.38c0,0.03,0,0.07,0,0.11
	c0,0.96,0.5,1.35,1.45,1.12c0.4-0.1,0.63-0.38,0.64-0.81c0.03-0.79,0.03-0.79,0.83-0.79c0.75,0,0.75,0,0.75,0.76
	c0,0.88,0,1.75,0,2.63c0,0.9-0.51,1.41-1.42,1.41C62.02,30.88,60.48,30.88,58.93,30.88z"/>
<path class="st1" d="M58.95,25.15c-1.87,0-3.74-0.01-5.62,0.01c-0.31,0-0.42-0.08-0.39-0.39c0.03-0.35,0-0.7,0.01-1.05
	c0.01-0.76,0.52-1.28,1.28-1.28c3.16-0.01,6.32-0.01,9.48,0c0.76,0,1.26,0.52,1.28,1.28c0.01,0.36-0.02,0.73,0.01,1.09
	c0.02,0.28-0.08,0.36-0.36,0.36c-1.59-0.01-3.18,0-4.77,0C59.56,25.15,59.26,25.15,58.95,25.15z"/>
<path class="st1" d="M58.99,19.41c1.47,0.01,2.7,0.91,3.07,2.25c0.03,0.11,0.07,0.24,0.04,0.34c-0.03,0.1-0.12,0.23-0.2,0.24
	c-0.1,0.02-0.24-0.04-0.33-0.11c-0.06-0.05-0.08-0.16-0.11-0.25c-0.34-1.12-1.3-1.84-2.48-1.84c-1.19,0-2.16,0.72-2.5,1.87
	c-0.06,0.21-0.14,0.43-0.42,0.36c-0.31-0.08-0.25-0.32-0.2-0.54C56.18,20.35,57.48,19.4,58.99,19.41z"/>
<g>
	<rect x="-20.96" y="-30.09" class="st2" width="19.57" height="4.7"/>
	<rect x="-20.96" y="-36.35" class="st2" width="19.57" height="4.7"/>
	<path class="st2" d="M-1.39-37.91h-19.57v-4.7h14.87C-3.49-42.61-1.39-40.51-1.39-37.91"/>
	<path class="st2" d="M8-37.91V-16h-23.48c-3.03,0-5.48-2.45-5.48-5.48H2.52v-16.43c0-4.75-3.85-8.61-8.61-8.61h-16.43
		c-3.03,0-5.48-2.45-5.48-5.48h21.91C1.69-52,8-45.69,8-37.91"/>
</g>
</svg>
