<svg xmlns="http://www.w3.org/2000/svg" version="1.1" xmlns:xlink="http://www.w3.org/1999/xlink" xmlns:svgjs="http://svgjs.dev/svgjs" width="1500" height="935" viewBox="0 0 1500 935"><g transform="matrix(1,0,0,1,-0.9090909090909918,0.3785425101214628)"><svg viewBox="0 0 396 247" data-background-color="#111111" preserveAspectRatio="xMidYMid meet" height="935" width="1500" xmlns="http://www.w3.org/2000/svg" xmlns:xlink="http://www.w3.org/1999/xlink"><g id="tight-bounds" transform="matrix(1,0,0,1,0.2400000000000091,-0.09999999999999432)"><svg viewBox="0 0 395.52 247.2" height="247.2" width="395.52"><g><svg></svg></g><g><svg viewBox="0 0 395.52 247.2" height="247.2" width="395.52"><mask id="b8ba7f3b-874d-49da-930e-44298797e0fa"><rect width="395.52" height="247.2" fill="white"></rect><g transform="matrix(1,0,0,1,112.21179016844948,37.08000000000001)" id="clone"><svg viewBox="0 0 171.09641966310102 173.03999999999996" height="173.03999999999996" width="171.09641966310102"><g><svg viewBox="0 0 171.09641966310102 173.03999999999996" height="173.03999999999996" width="171.09641966310102"><g><svg viewBox="0 0 171.09641966310102 173.03999999999996" height="173.03999999999996" width="171.09641966310102"><g id="SvgjsG1140"><svg viewBox="0 0 171.09641966310102 173.03999999999996" height="173.03999999999996" width="171.09641966310102" id="SvgjsSvg1139"><g><svg viewBox="0 0 171.09641966310102 173.03999999999996" height="173.03999999999996" width="171.09641966310102"><g transform="matrix(1,0,0,1,0,0)"><svg width="171.09641966310102" viewBox="0.7404761904761896 -39.00833333333 41.59952380952381 42.05833333333" height="173.03999999999996" data-palette-color="#5D86B9"><path d="M39.3-3.35L39.3-3.35Q39.25-1.9 38.2-0.9 37.15 0.1 35.7 0.05 34.25 0 33.25-1.05 32.25-2.1 32.3-3.55L32.3-3.55Q32.4-6.8 32.2-22.75L32.2-22.75Q28.5-18.1 24.9-12.8L24.9-12.8Q24.05-11.6 22.65-11.33 21.25-11.05 20.05-11.85L20.05-11.85Q19.9-11.95 19.8-12.05L19.8-12.05Q19.25-12.4 18.85-12.9L18.85-12.9 11.15-22.6Q11.2-22.5 11.18-13.03 11.15-3.55 11.15-3.5L11.15-3.5Q11.15-2.05 10.13-1.03 9.1 0 7.65 0 6.2 0 5.18-1.03 4.15-2.05 4.15-3.5L4.15-3.5Q4.15-5.6 4.17-10.55 4.2-15.5 4.2-18.2 4.2-20.9 4.1-24.9L4.1-24.9Q4-28.45 3.75-32.25L3.75-32.25Q3.65-33.7 4.6-34.8 5.55-35.9 7-36L7-36Q7.75-36.05 8.4-35.8L8.4-35.8Q9.8-35.6 10.65-34.45L10.65-34.45 21.75-20.5Q27.15-28 32.75-34L32.75-34Q33.8-35.8 35.85-35.75L35.85-35.75Q37.3-35.7 38.3-34.65 39.3-33.6 39.25-32.15L39.25-32.15Q39.1-27.4 39.25-17.63 39.4-7.85 39.3-3.35L39.3-3.35Z" opacity="1" transform="matrix(1,0,0,1,0,0)" fill="black" class="wordmark-text-0" id="SvgjsPath1138" stroke-width="5" stroke="black" stroke-linejoin="round"></path></svg></g></svg></g></svg></g></svg></g><g></g></svg></g></svg></g></mask><g mask="url(#b8ba7f3b-874d-49da-930e-44298797e0fa)"><g><path d="M282.763 193.613v0c-0.16 4.627-1.915 8.536-5.265 11.727-3.35 3.191-7.339 4.707-11.966 4.547-4.627-0.16-8.536-1.915-11.726-5.265-3.191-3.35-4.707-7.339-4.547-11.966v0c0.319-10.37 0.16-41.002-0.479-91.896v0c-11.806 14.837-23.453 30.712-34.939 47.623v0c-2.712 3.829-6.302 6.174-10.769 7.036-4.467 0.893-8.615 0.064-12.445-2.489v0c-0.479-0.319-0.877-0.638-1.196-0.957v0c-1.755-1.117-3.271-2.473-4.547-4.068v0l-36.854-46.427c0.16 0.319 0.207 15.587 0.143 45.804-0.096 30.249-0.144 45.454-0.143 45.613v0c0 4.627-1.627 8.567-4.882 11.823-3.287 3.287-7.243 4.93-11.87 4.929-4.627 0-8.567-1.643-11.823-4.929-3.287-3.255-4.93-7.195-4.929-11.823v0c0-6.701 0.032-17.949 0.095-33.743 0.096-15.795 0.144-28 0.144-36.615 0-8.615-0.16-19.305-0.479-32.068v0c-0.319-11.328-0.877-23.054-1.675-35.179v0c-0.319-4.627 1.037-8.695 4.068-12.205 3.031-3.51 6.86-5.424 11.488-5.743v0c2.393-0.16 4.627 0.16 6.7 0.957v0c4.467 0.638 8.057 2.792 10.769 6.461v0l53.128 66.769c17.231-23.931 34.78-45.47 52.649-64.615v0c3.35-5.744 8.296-8.536 14.837-8.376v0c4.627 0.16 8.536 1.915 11.727 5.265 3.191 3.35 4.707 7.339 4.547 11.966v0c-0.479 15.157-0.479 38.322 0 69.496 0.479 31.206 0.558 53.989 0.239 68.348z" fill="#5D86B9" fill-rule="nonzero" stroke="none" stroke-width="1" stroke-linecap="butt" stroke-linejoin="miter" stroke-miterlimit="10" stroke-dasharray="" stroke-dashoffset="0" font-family="none" font-weight="none" font-size="none" text-anchor="none" style="mix-blend-mode: normal" data-fill-palette-color="tertiary"></path></g></g><g transform="matrix(1,0,0,1,112.21179016844948,37.08000000000001)"><svg viewBox="0 0 171.09641966310102 173.03999999999996" height="173.03999999999996" width="171.09641966310102"><g><svg viewBox="0 0 171.09641966310102 173.03999999999996" height="173.03999999999996" width="171.09641966310102"><g><svg viewBox="0 0 171.09641966310102 173.03999999999996" height="173.03999999999996" width="171.09641966310102"><g id="textblocktransform"><svg viewBox="0 0 171.09641966310102 173.03999999999996" height="173.03999999999996" width="171.09641966310102" id="textblock"><g><svg viewBox="0 0 171.09641966310102 173.03999999999996" height="173.03999999999996" width="171.09641966310102"><g transform="matrix(1,0,0,1,0,0)"><svg width="171.09641966310102" viewBox="0.7404761904761896 -39.00833333333 41.59952380952381 42.05833333333" height="173.03999999999996" data-palette-color="#5D86B9"><path d="M39.3-3.35L39.3-3.35Q39.25-1.9 38.2-0.9 37.15 0.1 35.7 0.05 34.25 0 33.25-1.05 32.25-2.1 32.3-3.55L32.3-3.55Q32.4-6.8 32.2-22.75L32.2-22.75Q28.5-18.1 24.9-12.8L24.9-12.8Q24.05-11.6 22.65-11.33 21.25-11.05 20.05-11.85L20.05-11.85Q19.9-11.95 19.8-12.05L19.8-12.05Q19.25-12.4 18.85-12.9L18.85-12.9 11.15-22.6Q11.2-22.5 11.18-13.03 11.15-3.55 11.15-3.5L11.15-3.5Q11.15-2.05 10.13-1.03 9.1 0 7.65 0 6.2 0 5.18-1.03 4.15-2.05 4.15-3.5L4.15-3.5Q4.15-5.6 4.17-10.55 4.2-15.5 4.2-18.2 4.2-20.9 4.1-24.9L4.1-24.9Q4-28.45 3.75-32.25L3.75-32.25Q3.65-33.7 4.6-34.8 5.55-35.9 7-36L7-36Q7.75-36.05 8.4-35.8L8.4-35.8Q9.8-35.6 10.65-34.45L10.65-34.45 21.75-20.5Q27.15-28 32.75-34L32.75-34Q33.8-35.8 35.85-35.75L35.85-35.75Q37.3-35.7 38.3-34.65 39.3-33.6 39.25-32.15L39.25-32.15Q39.1-27.4 39.25-17.63 39.4-7.85 39.3-3.35L39.3-3.35Z" opacity="1" transform="matrix(1,0,0,1,0,0)" fill="#5D86B9" class="wordmark-text-0" data-fill-palette-color="primary" id="text-0"></path></svg></g></svg></g></svg></g></svg></g><g></g></svg></g></svg></g></svg></g><defs></defs></svg><rect width="395.52" height="247.2" fill="none" stroke="none" visibility="hidden"></rect></g></svg></g></svg>