<?xml version="1.0" encoding="utf-8"?>
<!-- Generator: Adobe Illustrator 27.9.0, SVG Export Plug-In . SVG Version: 6.00 Build 0)  -->
<svg version="1.1" id="Layer_1" xmlns="http://www.w3.org/2000/svg" xmlns:xlink="http://www.w3.org/1999/xlink" x="0px" y="0px"
	 viewBox="0 0 250 250" style="enable-background:new 0 0 250 250;" xml:space="preserve">
<style type="text/css">
	.st0{fill:#FFFFFF;}
</style>
<path class="st0" d="M15.52,0c72.99,0,145.98,0,218.97,0c-1.37,15.49-2.73,30.98-4.1,46.47c-1.4,15.81-2.82,31.63-4.22,47.44
	c-1.37,15.41-2.72,30.82-4.09,46.23c-1.4,15.73-2.8,31.46-4.2,47.2c-1.06,11.92-2.13,23.84-3.15,35.76
	c-0.12,1.42-0.46,2.28-2.07,2.73c-28.68,7.94-57.34,15.97-86.01,23.93c-0.89,0.25-1.95,0.35-2.81,0.11
	c-28.91-8.02-57.81-16.08-86.69-24.21c-0.74-0.21-1.65-1.3-1.74-2.08c-0.55-4.44-0.89-8.91-1.28-13.37
	c-1.53-17.44-3.05-34.88-4.59-52.31c-1.55-17.52-3.14-35.03-4.69-52.55c-1.54-17.44-3.05-34.88-4.59-52.31
	C18.68,35.36,17.09,17.68,15.52,0z M64.32,142.39c0.21,2.37,0.38,4.39,0.56,6.41c1.08,12,2.18,24,3.21,36.01
	c0.13,1.56,0.74,2.15,2.24,2.56c17.65,4.82,35.27,9.73,52.91,14.58c0.9,0.25,1.97,0.42,2.84,0.19c18.04-4.93,36.07-9.92,54.07-14.97
	c0.69-0.19,1.51-1.18,1.63-1.89c0.43-2.65,0.61-5.34,0.85-8.01c1.7-19.14,3.37-38.28,5.08-57.42c1.88-21,3.79-42,5.68-63.01
	c0.32-3.53,0.58-7.06,0.87-10.61c-46.33,0-92.37,0-138.55,0c0.6,8.72,1.19,17.22,1.79,25.82c35.79,0,71.34,0,106.96,0
	c-0.61,8.3-1.24,16.42-1.8,24.54c-0.23,3.29-0.17,3.33-3.39,3.37c-32.01,0.4-64.02,0.78-96.03,1.17c-0.93,0.01-1.86,0-3,0
	c0.95,9,1.85,17.55,2.76,26.15c32.53,0,64.74,0,97.04,0c-1.31,12.07-2.62,23.96-3.87,35.86c-0.17,1.65-0.75,2.5-2.5,2.95
	c-8.98,2.3-17.91,4.8-26.88,7.13c-1.19,0.31-2.6,0.29-3.79-0.02c-8.89-2.31-17.74-4.79-26.64-7.07c-1.75-0.45-2.32-1.29-2.45-2.96
	c-0.5-6.25-1.05-12.49-1.7-18.73c-0.07-0.71-0.89-1.93-1.37-1.94C82.12,142.36,73.42,142.39,64.32,142.39z"/>
</svg>
