<?xml version="1.0" encoding="utf-8"?>
<!-- Generator: Adobe Illustrator 27.9.0, SVG Export Plug-In . SVG Version: 6.00 Build 0)  -->
<svg version="1.1" id="Layer_1" xmlns="http://www.w3.org/2000/svg" xmlns:xlink="http://www.w3.org/1999/xlink" x="0px" y="0px"
	 viewBox="0 0 250 250" style="enable-background:new 0 0 250 250;" xml:space="preserve">
<style type="text/css">
	.st0{fill:#FFFFFF;}
</style>
<path class="st0" d="M80.12,250c-2.44-0.54-4.92-0.92-7.3-1.66c-18.67-5.78-30.62-18.12-33.91-37.42
	c-3.18-18.69,3.61-33.99,18.65-45.58c0.45-0.35,0.91-0.68,1.56-1.17c-13.35-9.65-20.89-22.5-20.92-39.04
	c-0.03-16.56,7.36-29.48,20.93-39.23c-0.99-0.76-1.89-1.39-2.73-2.09C40.93,70.96,34.75,54.55,39.79,35.07
	C44.74,15.92,57.88,4.58,77.27,0.66c2.76-0.56,5.66-0.62,8.5-0.63c26.2-0.04,52.4-0.04,78.61-0.02
	c23.55,0.02,42.72,15.52,46.75,38.66c3.22,18.5-3.24,33.71-17.87,45.46c-0.63,0.51-1.3,0.98-1.94,1.47
	c-0.05,0.04-0.07,0.13-0.21,0.38c12.69,9.06,20,21.31,20.77,37.03c0.59,12.03-3.23,22.71-10.89,32.03
	c-15.85,19.3-47.12,23.25-68.23,4.83c0,1.19,0,2.02,0,2.85c0,13.18,0.06,26.36-0.02,39.55c-0.14,22.52-14.84,41.1-36.67,46.44
	c-2.04,0.5-4.11,0.85-6.17,1.28C86.63,250,83.38,250,80.12,250z M117.24,15.43c-0.66-0.06-1.06-0.12-1.45-0.12
	c-10.41-0.01-20.83-0.03-31.24,0.02c-1.78,0.01-3.59,0.19-5.33,0.53c-16.62,3.29-27.15,17.7-25.48,34.8
	c1.5,15.4,15.31,27.46,31.55,27.51c9.84,0.03,19.69,0.01,29.54,0c0.78,0,1.57-0.07,2.42-0.12
	C117.24,57.13,117.24,36.41,117.24,15.43z M132.85,78.19c1.02,0,1.82,0,2.62,0c9.68,0,19.36,0.03,29.05-0.02
	c2.1-0.01,4.23-0.15,6.31-0.51c14.98-2.53,26.36-16.5,25.81-31.57c-0.59-16.02-12.58-29.46-28.13-30.41
	c-11.67-0.71-23.41-0.24-35.12-0.28c-0.14,0-0.28,0.16-0.52,0.3C132.85,36.37,132.85,57.1,132.85,78.19z M117.2,93.73
	c-0.61-0.05-1.08-0.13-1.55-0.13c-10.49,0-20.99-0.05-31.48,0.05c-2.33,0.02-4.72,0.35-6.98,0.92
	c-15.58,3.96-25.22,18.3-23.43,34.69c1.62,14.82,14.94,26.81,30.42,27.1c10.49,0.2,20.98,0.05,31.48,0.04
	c0.47,0,0.94-0.08,1.54-0.13C117.2,135.44,117.2,114.74,117.2,93.73z M117.34,171.82c-11.31,0-22.2-0.12-33.08,0.02
	c-22.7,0.3-37.53,24.34-27.73,44.81c6.37,13.31,20.83,20.33,35.54,17.26c14.26-2.98,24.91-15.61,25.21-30.17
	c0.18-8.7,0.05-17.4,0.06-26.1C117.34,175.8,117.34,173.95,117.34,171.82z M164.62,156.42c17.86,0.01,32.04-13.92,32.02-31.43
	c-0.02-17.44-14.1-31.33-31.82-31.39c-17.93-0.06-32.03,13.7-32.07,31.31C132.72,142.53,146.75,156.41,164.62,156.42z"/>
</svg>
