<?xml version="1.0" encoding="utf-8"?>
<!-- Generator: Adobe Illustrator 27.9.0, SVG Export Plug-In . SVG Version: 6.00 Build 0)  -->
<svg version="1.1" id="Layer_1" xmlns="http://www.w3.org/2000/svg" xmlns:xlink="http://www.w3.org/1999/xlink" x="0px" y="0px"
	 viewBox="0 0 250 250" style="enable-background:new 0 0 250 250;" xml:space="preserve">
<style type="text/css">
	.st0{fill:#FFFFFF;}
</style>
<path class="st0" d="M132.45,159.11c0-22.32,0-44.62,0-65.93c8.24,8.09,16.77,16.46,25.96,25.48c-2.1,12.17,0.88,20.35,10,25.08
	c7.84,4.07,17.53,2.63,23.77-3.52c6.1-6.01,7.65-15.91,3.72-23.8c-4.54-9.12-12.65-12.12-26.08-9.92
	c-8.6-8.55-16.98-16.9-25.54-25.42c4.81-16.99-6.75-32.86-27.11-27.48c-8.77-8.73-17.3-17.22-25.25-25.13
	c7.64-8.16,15.14-17.08,23.62-24.94c5.52-5.11,13.24-4.37,19.52,0.16c1.95,1.41,3.67,3.15,5.38,4.85
	c33.61,33.59,67.21,67.19,100.81,100.8c0.62,0.62,1.25,1.24,1.86,1.87c9.06,9.38,9.17,18.4-0.03,27.65
	c-22.02,22.16-44.15,44.2-66.24,66.3c-12.44,12.45-24.86,24.92-37.34,37.32c-10.1,10.03-18.86,10.03-29.05-0.14
	C76.18,208.17,41.96,173.95,7.77,139.7c-10.21-10.23-10.28-18.9-0.25-29.05c22.73-23,45.55-45.92,68.34-68.86
	c1.23-1.23,2.56-2.36,3.45-3.19c8.57,8.71,16.99,17.27,26.27,26.7c-3,10.51,0.21,20.23,12.24,26.14c0,22.58,0,45,0,67.36
	c-12.15,9.03-15.4,16.25-11.91,26.34c2.89,8.37,11.12,14.18,19.62,13.87c8.87-0.33,16.49-6.27,18.99-14.81
	C147.36,174.55,143.63,166.81,132.45,159.11z"/>
</svg>
