<?xml version="1.0" encoding="utf-8"?>
<!-- Generator: Adobe Illustrator 27.9.0, SVG Export Plug-In . SVG Version: 6.00 Build 0)  -->
<svg version="1.1" id="Layer_1" xmlns="http://www.w3.org/2000/svg" xmlns:xlink="http://www.w3.org/1999/xlink" x="0px" y="0px"
	 viewBox="0 0 250 250" style="enable-background:new 0 0 250 250;" xml:space="preserve">
<style type="text/css">
	.st0{fill:#FFFFFF;}
</style>
<path class="st0" d="M126.01,250c-0.49,0-0.98,0-1.47,0c-0.82-0.33-1.63-0.71-2.47-0.98c-29.8-9.81-59.59-19.63-89.41-29.37
	c-1.78-0.58-2.58-1.32-2.71-3.32c-0.8-12.67-1.76-25.33-2.65-37.99c-1.2-16.97-2.39-33.93-3.6-50.9
	c-1.39-19.48-2.8-38.96-4.19-58.44c-1.26-17.53-2.51-35.07-3.75-52.6C15.37,10.98,15.01,5.56,14.63,0c73.66,0,147.14,0,220.7,0
	c0,1.3,0.07,2.5-0.01,3.69c-1.06,14.77-2.16,29.54-3.21,44.32c-1.71,24.11-3.37,48.22-5.07,72.33c-2.26,31.9-4.55,63.8-6.77,95.71
	c-0.14,1.95-0.73,2.95-2.72,3.6c-26.89,8.76-53.75,17.61-80.61,26.46C133.27,247.32,129.66,248.7,126.01,250z M159.98,132.77
	c-0.88,12.3-1.72,24.23-2.66,36.15c-0.05,0.62-0.92,1.47-1.58,1.69c-9.78,3.32-19.57,6.56-29.39,9.76
	c-0.78,0.25-1.79,0.23-2.58-0.03c-9.81-3.2-19.61-6.43-29.38-9.78c-0.71-0.24-1.43-1.36-1.58-2.18c-0.39-2.04-0.45-4.14-0.64-6.21
	c-9.81,0-19.39,0-29.08,0c0,0.99-0.05,1.86,0.01,2.73c0.58,8.2,1.23,16.39,1.72,24.6c0.1,1.64,0.6,2.36,2.18,2.88
	c18.75,6.19,37.47,12.48,56.23,18.66c1.13,0.37,2.59,0.38,3.71,0.01c18.75-6.18,37.47-12.48,56.22-18.67
	c1.59-0.52,2.12-1.27,2.22-2.88c0.51-8.12,1.14-16.24,1.72-24.35c1.08-15.02,2.16-30.03,3.23-45.05c0.39-5.48,0.75-10.97,1.15-16.74
	c-34.57,0-68.88,0-103.33,0c-0.88-12.63-1.75-24.99-2.63-37.6c36.35,0,72.38,0,108.6,0c0.69-9.82,1.37-19.44,2.05-29.13
	c-47.49,0-94.67,0-142.16,0c2.25,32.09,4.49,64.02,6.74,96.13C93.86,132.77,126.73,132.77,159.98,132.77z"/>
</svg>
