<?xml version="1.0" encoding="utf-8"?>
<!-- Generator: Adobe Illustrator 27.9.0, SVG Export Plug-In . SVG Version: 6.00 Build 0)  -->
<svg version="1.1" id="Layer_1" xmlns="http://www.w3.org/2000/svg" xmlns:xlink="http://www.w3.org/1999/xlink" x="0px" y="0px"
	 viewBox="0 0 250 250" style="enable-background:new 0 0 250 250;" xml:space="preserve">
<style type="text/css">
	.st0{fill:#FFFFFF;}
</style>
<path class="st0" d="M0,250C0,166.69,0,83.37,0,0c83.28,0,166.6,0,250,0c0,83.29,0,166.65,0,250C166.73,250,83.38,250,0,250z
	 M148.41,206.29c3.32,6.77,7.92,12.14,14.01,16.14c12.68,8.33,26.65,9.99,41.12,6.81c19.03-4.18,28.18-16.9,26.62-36.26
	c-0.85-10.59-6.24-18.71-15.19-23.97c-7.66-4.5-15.96-7.92-23.89-11.97c-3.16-1.61-6.36-3.33-9.08-5.55
	c-3.18-2.6-3.61-6.41-2.61-10.28c0.97-3.79,3.7-6.01,7.34-6.69c6.17-1.14,11.63,0.25,15.57,5.61c0.94,1.28,1.84,2.6,2.86,4.04
	c6.23-4.01,12.28-7.9,18.4-11.84c-5.36-9.66-12.87-15.99-23.52-18.16c-6.43-1.31-12.92-1.48-19.33,0.01
	c-11.64,2.71-20.41,9.07-23.8,20.95c-3.46,12.13-1.41,23.39,7.51,32.8c5.54,5.85,12.71,9.16,19.93,12.4
	c5.47,2.45,10.94,4.94,16.23,7.76c4.19,2.24,6.48,6,5.92,10.88c-0.59,5.16-4.08,7.93-8.75,9.39c-10.47,3.27-21.23-0.68-27.94-10.22
	c-0.69-0.98-1.37-1.96-2.13-3.06C161.15,198.87,154.86,202.53,148.41,206.29z M84.72,197.16c-6.15,3.73-12.03,7.34-17.97,10.85
	c-1.35,0.8-0.97,1.61-0.44,2.6c3.53,6.62,8.38,11.96,15.08,15.47c8.69,4.55,17.98,5.36,27.47,3.89c10.64-1.66,19.05-6.75,23.73-16.9
	c2.52-5.47,3.5-11.3,3.5-17.3c0.02-26.12,0.01-52.23,0.01-78.35c0-0.87-0.07-1.73-0.12-2.67c-7.98,0-15.72,0-23.78,0
	c0,1.38,0,2.58,0,3.78c0,24.57,0.01,49.14-0.01,73.71c0,2.19-0.05,4.4-0.23,6.58c-0.42,5.15-2.92,8.52-7.11,9.76
	c-6.45,1.92-12.16,0.04-16.13-5.38C87.36,201.33,86.15,199.32,84.72,197.16z"/>
</svg>
