<?xml version="1.0" encoding="utf-8"?>
<!-- Generator: Adobe Illustrator 27.9.0, SVG Export Plug-In . SVG Version: 6.00 Build 0)  -->
<svg version="1.1" id="Layer_1" xmlns="http://www.w3.org/2000/svg" xmlns:xlink="http://www.w3.org/1999/xlink" x="0px" y="0px"
	 viewBox="0 0 250 250" style="enable-background:new 0 0 250 250;" xml:space="preserve">
<style type="text/css">
	.st0{fill:#FFFFFF;}
</style>
<g>
	<path class="st0" d="M81.94,227.41c5.79-2.73,10.41-5.19,15.26-7.02c1.46-0.55,3.8,0.3,5.38,1.16c5.97,3.3,11.93,6.66,17.62,10.4
		c3.41,2.24,6.12,2.17,9.61,0.12c22.21-13.01,44.53-25.83,66.81-38.7c6.08-3.51,12.04-7.25,18.28-10.45
		c3.82-1.96,5.15-4.5,5.13-8.76c-0.15-32.58-0.2-65.16,0.04-97.73c0.04-4.87-1.8-7.37-5.78-9.62
		c-18.83-10.66-37.54-21.55-56.29-32.36c-9.46-5.45-18.98-10.81-28.34-16.42c-3.23-1.94-5.82-1.97-9.14-0.03
		C92.06,34.6,63.53,51.1,34.9,67.4c-3.82,2.17-4.94,4.74-4.92,8.88c0.12,32.58,0.13,65.16-0.01,97.73c-0.02,4.22,1.24,6.81,5.07,8.8
		c6.57,3.41,12.79,7.48,19.3,11.02c2.88,1.57,5.98,3.01,9.16,3.69c8.44,1.81,15.12-3.45,15.78-12.05c0.13-1.75,0.05-3.51,0.06-5.27
		c0-30.82,0-61.64,0-92.47c0-1.56,0.08-3.13,0-4.68c-0.18-3.31,1.47-4.47,4.61-4.48c13.76-0.01,11.61-0.71,11.64,10.9
		c0.07,31.6,0.08,63.2-0.04,94.81c-0.02,4.24-0.41,8.63-1.55,12.69c-2.32,8.27-7.76,13.8-16.27,16.01
		c-10.6,2.75-20.5,0.72-29.88-4.45c-8.02-4.43-15.98-8.99-23.86-13.66c-6.55-3.88-9.99-9.79-10-17.42
		c-0.06-34.92-0.04-69.84-0.02-104.76c0-7.68,3.44-13.59,10-17.4c30.36-17.61,60.77-35.13,91.2-52.6
		c7.09-4.07,14.16-3.36,21.11,0.68c12.47,7.26,24.98,14.44,37.48,21.66c16.71,9.66,33.36,19.43,50.16,28.93
		c8.31,4.69,12.2,11.4,12.15,20.98c-0.16,33.55-0.13,67.11-0.02,100.66c0.03,9.07-3.61,15.62-11.5,20.15
		c-29.09,16.69-58.17,33.4-87.11,50.34c-8.67,5.07-16.63,5.34-25.16-0.23c-8.16-5.32-16.74-10-25.11-14.98
		C85.71,230.04,84.33,229.02,81.94,227.41z"/>
	<path class="st0" d="M105.6,141.48c4.53,0,8.76-0.19,12.95,0.13c1.14,0.09,2.94,1.61,3.12,2.69c2.11,12.57,11.23,16.26,22.03,16.85
		c8.11,0.45,16.35-0.1,24.44-1.01c5.52-0.63,10.48-3.17,12.43-9.22c1.87-5.8,0.34-10.35-5.34-12.39
		c-5.45-1.95-11.24-3.09-16.97-4.08c-8.24-1.42-16.57-2.34-24.85-3.57c-2.11-0.31-4.21-0.85-6.24-1.49
		c-15-4.73-20.99-14.42-18.42-29.91c1.23-7.42,5.73-12.62,11.85-16.62c6.04-3.95,12.88-5.66,19.86-6.36
		c10.51-1.05,21.04-0.73,31.31,2.19c13.11,3.73,20.9,12.31,23.08,25.82c0.78,4.85-0.17,5.95-5.03,6.2
		c-1.36,0.07-2.73,0.03-4.09,0.02c-6.1-0.06-6.2-0.03-8.26-5.89c-2.82-8.01-8.95-11.72-16.84-12.39
		c-6.75-0.57-13.63-0.56-20.38,0.01c-3.52,0.3-7.14,1.92-10.26,3.72c-3.77,2.18-4.45,6.19-3.97,10.3c0.46,3.96,3.41,5.62,6.75,6.35
		c7.22,1.59,14.51,2.8,21.75,4.27c9.52,1.93,19.17,3.44,28.49,6.1c8.19,2.34,13.89,8.11,15.24,16.87
		c2.12,13.78-2.4,24.83-15.59,31.56c-8.19,4.18-17.13,5.51-26.07,5.61c-9.31,0.1-18.72-0.31-27.76-3.18
		c-11.93-3.8-20.75-10.73-23.18-23.74C105.19,147.73,105.6,145,105.6,141.48z"/>
</g>
</svg>
