<?xml version="1.0" encoding="utf-8"?>
<!-- Generator: Adobe Illustrator 27.9.0, SVG Export Plug-In . SVG Version: 6.00 Build 0)  -->
<svg version="1.1" id="Layer_1" xmlns="http://www.w3.org/2000/svg" xmlns:xlink="http://www.w3.org/1999/xlink" x="0px" y="0px"
	 viewBox="0 0 250 250" style="enable-background:new 0 0 250 250;" xml:space="preserve">
<style type="text/css">
	.st0{fill:#FFFFFF;}
</style>
<g>
	<path class="st0" d="M125.25,212.84c-5.77,4.72-11.15,9.39-16.82,13.7c-7.49,5.69-15.62,10.3-24.75,12.92
		c-5.22,1.5-10.52,2.15-15.91,1.11c-8.68-1.68-14.57-6.93-18.41-14.66c-2.67-5.38-3.82-11.17-4.4-17.11
		c-1.24-12.61,0.87-24.9,3.51-37.14c0.23-1.08,0.45-2.17,0.75-3.55c-1.12-0.43-2.2-0.89-3.29-1.27c-10.19-3.55-20-7.87-28.78-14.25
		c-5.3-3.85-9.94-8.33-13.23-14.06c-5.72-9.94-5.02-19.64,1.24-29.05c4.73-7.11,11.38-12.09,18.61-16.39
		c7.12-4.24,14.74-7.36,22.53-10.09c0.95-0.33,1.88-0.72,2.87-1.1c-0.95-4.85-1.97-9.54-2.77-14.26
		c-2.06-12.13-2.89-24.28,0.3-36.35c1.51-5.71,4.02-10.93,8.33-15.15c5.83-5.71,12.85-7.73,20.84-7.03
		c9.8,0.86,18.32,5.02,26.46,10.15c6.99,4.41,13.44,9.55,19.49,15.18c0.75,0.69,1.52,1.36,2.3,2.01c0.27,0.23,0.62,0.37,1.15,0.67
		c1.99-1.75,3.98-3.52,5.99-5.27c8.12-7.1,16.74-13.47,26.57-18.07c5.76-2.7,11.77-4.65,18.14-4.83
		c10.26-0.29,18.35,3.85,23.62,12.85c3.93,6.71,5.42,14.13,5.82,21.79c0.64,12.31-1.23,24.37-4.03,36.31
		c-0.12,0.53-0.23,1.07-0.42,1.93c1.11,0.45,2.17,0.95,3.26,1.32c8.54,2.9,16.76,6.49,24.42,11.28c6.33,3.96,12.1,8.58,16.3,14.88
		c7.47,11.2,6.65,23.81-1.99,34.13c-5.09,6.07-11.23,10.84-18.2,14.37c-6.67,3.38-13.69,6.09-20.56,9.08c-1,0.43-2.03,0.8-3.16,1.23
		c0.8,4,1.53,7.79,2.32,11.58c1.91,9.21,2.55,18.53,1.99,27.9c-0.43,7.17-1.93,14.15-5.64,20.43c-5.64,9.58-14.12,13.71-25.15,12.87
		c-10.23-0.78-19-5.3-27.44-10.62c-7.23-4.56-13.72-10.09-20.03-15.84C126.44,213.86,125.81,213.33,125.25,212.84z M124.89,80.39
		c-7.49,0.43-14.97,0.9-22.45,1.25c-1.66,0.08-2.69,0.72-3.6,2.08c-8.47,12.63-16.08,25.76-22.76,39.42
		c-0.7,1.43-0.61,2.55,0.1,3.88c2.48,4.66,4.67,9.48,7.34,14.02c5.02,8.54,10.29,16.92,15.45,25.38c0.65,1.07,1.39,1.84,2.82,1.91
		c6.56,0.29,13.12,0.98,19.68,0.96c8.51-0.03,17.01-0.67,25.52-0.86c2.23-0.05,3.54-0.89,4.71-2.66
		c8.2-12.37,15.66-25.15,22.16-38.49c0.76-1.56,0.8-2.88,0.03-4.45c-6.63-13.59-14.2-26.63-22.62-39.18
		c-0.84-1.26-1.76-1.92-3.35-1.99C140.25,81.29,132.58,80.82,124.89,80.39z M58.59,171.03c-0.15,0.22-0.39,0.42-0.45,0.67
		c-2.83,11.55-4.69,23.22-3.94,35.15c0.32,4.98,1.17,9.93,3.34,14.52c3.18,6.76,8.36,10.42,15.98,10.3
		c4.43-0.07,8.59-1.27,12.62-2.96c9.76-4.1,18.19-10.25,26.1-17.17c2.06-1.8,4.04-3.68,5.97-5.44c-0.27-0.53-0.32-0.72-0.44-0.85
		c-7.64-8.45-14.97-17.16-21.57-26.45c-0.94-1.33-2.2-1.8-3.78-1.97c-3.68-0.39-7.36-0.79-11-1.44
		C73.89,174.04,66.37,172.52,58.59,171.03z M118.29,44.16c-0.57-0.63-0.97-1.14-1.43-1.58c-6.56-6.16-13.53-11.81-21.25-16.48
		c-5.66-3.42-11.57-6.17-18.15-7.39c-9.68-1.79-17.02,2.2-20.55,11.35c-1.88,4.89-2.61,10.01-2.81,15.21
		c-0.37,9.86,1,19.55,3.15,29.15c0.35,1.58,0.79,3.14,1.16,4.58c0.55,0.05,0.74,0.12,0.91,0.08c11.05-2.77,22.21-4.92,33.56-6
		c1.58-0.15,2.66-1.01,3.63-2.26c4.94-6.36,9.91-12.69,14.96-18.96C113.6,49.23,115.97,46.77,118.29,44.16z M191.62,78.93
		c0.15-0.32,0.38-0.63,0.46-0.97c3.01-12.57,5.07-25.24,3.53-38.21c-0.52-4.42-1.58-8.74-3.78-12.7c-3.16-5.67-7.95-8.58-14.46-8.71
		c-5.62-0.11-10.76,1.71-15.74,4.01c-8.06,3.71-15.19,8.86-21.92,14.57c-2.66,2.26-5.21,4.66-7.86,7.05
		c0.46,0.67,0.67,1.08,0.98,1.41c7.6,8.02,14.48,16.62,20.93,25.57c1.18,1.63,2.7,2.03,4.51,2.24c3.58,0.42,7.18,0.81,10.73,1.44
		C176.45,75.97,183.89,77.46,191.62,78.93z M131.93,205.71c0.47,0.57,0.77,1.04,1.16,1.41c6.29,6.06,13.04,11.55,20.47,16.16
		c6.18,3.83,12.65,7.02,19.94,8.12c7.05,1.07,13.14-0.67,17.26-6.85c1.41-2.12,2.45-4.58,3.23-7.03c1.82-5.69,2.35-11.63,2.17-17.56
		c-0.29-9.18-1.68-18.24-3.86-27.16c-0.16-0.67-0.55-1.29-0.85-2c-11.54,2.81-22.98,5-34.6,6.22c-1.09,0.11-2.29,1.14-3.04,2.06
		c-5.32,6.54-10.49,13.19-15.79,19.74C136.11,201.19,134,203.38,131.93,205.71z M198.61,159.02c4.75-1.87,9.29-3.46,13.67-5.42
		c8.33-3.72,16.18-8.21,22.46-15.03c7.86-8.53,7.89-18.52,0.04-27.08c-0.31-0.34-0.64-0.67-0.96-1.01
		c-6.41-6.69-14.4-10.96-22.74-14.63c-4.04-1.78-8.22-3.22-12.42-4.85c-0.45,0.94-0.76,1.5-0.99,2.08
		c-3.8,9.93-7.54,19.89-11.44,29.78c-0.64,1.63-0.52,2.88,0.09,4.44c3.84,9.82,7.56,19.68,11.33,29.52
		C197.88,157.42,198.16,157.99,198.61,159.02z M51.55,159c0.41-0.86,0.58-1.18,0.71-1.52c3.9-10.2,7.76-20.41,11.72-30.59
		c0.64-1.65,0.33-2.98-0.26-4.51c-3.7-9.48-7.33-18.99-10.98-28.49c-0.32-0.84-0.65-1.68-1.01-2.62c-0.75,0.17-1.29,0.24-1.79,0.41
		c-9.7,3.26-19.08,7.24-27.32,13.41c-3.08,2.31-5.91,5.06-8.47,7.95c-2.74,3.09-4.42,6.79-4.63,11.07
		c-0.26,5.57,2.06,10.06,5.62,14.06c6.62,7.46,15.14,12.11,24.11,16.02C43.22,155.93,47.31,157.36,51.55,159z M108,70.71
		c0.15,0.23,0.31,0.45,0.46,0.68c11.12,0,22.24,0,33.96,0c-5.61-7.35-11.09-14.09-17.56-20.7C119.04,57.6,113.52,64.16,108,70.71z
		 M125.08,199.08c6.28-6.51,11.85-13.15,17.19-20.41c-11.65,0-22.77,0-34.44,0C113.37,186.02,118.86,192.67,125.08,199.08z
		 M180.25,136.19c-6.06,10.5-11.71,20.3-17.63,30.56c9.16-1.23,17.81-2.75,26.85-5.28C186.35,152.92,183.39,144.8,180.25,136.19z
		 M60.95,88.43c2.61,8.77,5.63,16.92,9.14,25.05c5.86-10.15,11.53-19.99,17.45-30.25C78.35,84.4,69.78,86.09,60.95,88.43z
		 M87.54,166.72c-5.91-10.23-11.6-20.08-17.46-30.23c-3.53,8.25-6.59,16.41-9.08,25.05C69.78,163.92,78.43,165.59,87.54,166.72z
		 M180.27,113.79c3.14-8.63,6.09-16.74,9.17-25.22c-9.01-2.59-17.62-4.16-26.8-5.29C168.58,93.57,174.24,103.36,180.27,113.79z"/>
	<path class="st0" d="M125.11,151.85c-12.38,0.43-26.86-9.52-26.96-26.76c-0.1-16.66,13.91-26.96,26.77-27.02
		c14.52-0.08,27.18,12.12,27.12,26.97C151.97,140.37,138.85,152.3,125.11,151.85z"/>
</g>
</svg>
