<?xml version="1.0" encoding="utf-8"?>
<!-- Generator: Adobe Illustrator 27.9.0, SVG Export Plug-In . SVG Version: 6.00 Build 0)  -->
<svg version="1.1" id="Layer_1" xmlns="http://www.w3.org/2000/svg" xmlns:xlink="http://www.w3.org/1999/xlink" x="0px" y="0px"
	 viewBox="0 0 250 250" style="enable-background:new 0 0 250 250;" xml:space="preserve">
<style type="text/css">
	.st0{fill:#FFFFFF;}
</style>
<g>
	<path class="st0" d="M141.03,234.04c4.42-3.64,8.7-7.13,12.93-10.68c2.06-1.73,4.04-1.62,6.6-0.85c9.72,2.94,19.71,4.61,29.89,3.81
		c12.53-0.99,24.22-4.31,32.92-14.26c5.4-6.16,8.43-13.37,8.91-21.56c1.02-17.21-5.78-31.78-15.91-44.96
		c-17.07-22.23-39.56-36.28-66.8-42.63c-7.34-1.71-14.88-2.12-22.45-1.78c-2.17,0.1-3.56,0.82-4.84,2.73
		c-1.5,2.26-3.4,4.47-5.62,5.99c-5.93,4.08-12.29,4.25-18.48,0.55c-6.14-3.66-9.34-9.35-8.79-16.39
		c0.54-6.98,4.34-12.21,10.93-15.11c5.77-2.53,11.23-1.7,16.41,1.63c1.66,1.07,3.21,2.32,4.71,3.42
		c19.54-2.05,37.97,1.81,55.66,9.43c17.33,7.47,32.59,18.05,45.34,32.05c12.48,13.71,21.78,29.21,25.86,47.48
		c3.62,16.2,1.56,31.54-7.67,45.55c-7.28,11.05-17.74,18.06-30.21,21.94c-9.31,2.9-18.94,4.36-28.72,3.68
		C167.66,243.11,154.04,240.17,141.03,234.04z"/>
	<path class="st0" d="M83.87,161.73c9.69-3,19.42,3.38,21.95,11.16c2.28,6.99,0.26,14.71-5.39,19.29
		c-6.27,5.08-13.84,5.7-20.46,1.51c-5.62-3.56-8.49-8.84-8.52-15.42c-0.02-2.95-0.82-5.16-2.57-7.57
		c-10.07-13.83-16.54-29.18-19.24-46.17c-1.34-8.44-2.46-16.86-2.09-25.4c1.05-24.49,7.31-47.29,22.57-66.97
		c10.99-14.18,25.05-23.6,43.12-26.05c9.02-1.22,17.75,0.58,26.17,3.92c12.77,5.08,22.48,13.93,30.44,24.86
		c9.26,12.71,14.75,27.06,18.04,42.33c0.16,0.76,0.13,1.58,0.06,2.36c-0.03,0.34-0.37,0.66-0.79,1.34
		c-5.78-2.19-11.63-4.41-17.44-6.61c-1.98-5.04-3.92-10.01-5.89-14.97c-4.19-10.57-10.85-19.45-19.65-26.47
		c-15.84-12.63-35.65-12.95-52.09,1.44C78.5,46.21,71.42,61.65,67.67,78.89c-2.16,9.93-3.02,20.01-2.29,30.13
		C66.75,128.1,71.64,146.03,83.87,161.73z"/>
	<path class="st0" d="M33.21,120.08c1.41,6.97,2.69,13.29,4.1,20.23c-1.08,1.46-2.49,3.34-3.89,5.23
		c-7.38,10-13.17,20.73-15.29,33.17c-3.65,21.41,6.85,39.3,27.94,45.3c13.54,3.85,27.05,3.08,40.47-0.58
		c22.01-6.01,40.65-17.64,56.02-34.43c6.31-6.89,11.82-14.42,15.61-23.37c-0.69-1.64-1.42-3.47-2.22-5.25
		c-3.47-7.76,1.52-18.45,10.13-21.99c9.62-3.96,19.58,1.87,22.79,9.54c3.97,9.51-0.94,20.49-10.85,23.39
		c-2.58,0.75-4.03,1.92-5.23,4.19c-18.54,34.81-47.63,56.08-85.43,65.81c-8.81,2.27-17.94,3.4-27.09,2.77
		c-17.9-1.23-34.34-6.18-46.79-20.11c-6.77-7.57-10.84-16.48-12.57-26.5c-3.16-18.35,2.16-34.86,10.9-50.62
		c4.93-8.9,10.99-16.98,18.26-24.12C30.87,121.97,31.78,121.3,33.21,120.08z"/>
</g>
</svg>
