<?xml version="1.0" encoding="utf-8"?>
<!-- Generator: Adobe Illustrator 27.9.0, SVG Export Plug-In . SVG Version: 6.00 Build 0)  -->
<svg version="1.1" id="Layer_1" xmlns="http://www.w3.org/2000/svg" xmlns:xlink="http://www.w3.org/1999/xlink" x="0px" y="0px"
	 viewBox="0 0 250 250" style="enable-background:new 0 0 250 250;" xml:space="preserve">
<style type="text/css">
	.st0{fill:#FFFFFF;}
</style>
<g>
	<path class="st0" d="M126.37,202.48c-17.46-0.4-32.42-3.98-45.21-13.96c-5.21-4.07-9.99-8.69-14.86-13.18
		c-4.35-4.01-8.25-8.59-12.89-12.22c-12.83-10.05-32.34-9.82-45.48,0.51c-1.41,1.11-2.78,2.27-4.28,3.24
		c-0.65,0.42-1.94,0.85-2.3,0.54c-0.7-0.6-1.2-1.69-1.32-2.64c-0.1-0.8,0.36-1.72,0.71-2.53c5.48-12.95,13.82-23.38,26.54-29.85
		c7.07-3.59,14.59-5.77,22.53-6.41c3.56-0.28,7.11-0.98,10.66-0.9c16.86,0.39,32.62,4.38,45.84,15.44
		c5.9,4.94,11.3,10.48,16.96,15.72c2.89,2.67,5.84,5.29,8.79,7.89c11,9.68,32.57,10.42,45.8-0.8c1.23-1.04,2.51-2.05,3.88-2.88
		c0.66-0.4,1.95-0.78,2.32-0.46c0.69,0.62,1.16,1.73,1.26,2.68c0.09,0.81-0.39,1.71-0.73,2.53c-8.39,20.13-23.42,32.07-44.78,35.96
		C134.89,202.06,129.84,202.16,126.37,202.48z"/>
	<path class="st0" d="M191.07,124.77c-18.64-0.62-34.32-4.75-47.59-15.75c-3.31-2.75-6.21-5.99-9.34-8.95
		c-4.69-4.44-9.3-8.98-14.17-13.21c-7.62-6.62-16.5-9.16-26.68-8.77c-9,0.35-16.07,4.39-22.94,9.39c-0.87,0.63-1.59,1.48-2.47,2.08
		c-1.33,0.9-2.98,0.11-3.07-1.55c-0.06-1.03,0.13-2.17,0.54-3.11c8.49-19.11,22.3-31.77,43.37-35.46
		c5.09-0.89,10.29-2.14,15.37-1.88c13.77,0.72,27.39,2.27,39.45,10.22c6.36,4.19,12,9.07,17.29,14.45
		c5.54,5.63,11.26,11.01,17.61,15.78c10.22,7.67,30.06,8.05,40.62,0.16c2.44-1.82,4.89-3.63,7.42-5.32
		c0.63-0.42,1.77-0.73,2.32-0.43c0.63,0.34,1.21,1.43,1.18,2.16c-0.06,1.2-0.53,2.42-1,3.56c-3.09,7.36-7.56,13.89-12.96,19.66
		c-3.91,4.18-8.74,7.45-13.94,9.93c-6.99,3.34-14.34,5.49-22.12,6.06C196.42,124.04,192.88,124.56,191.07,124.77z"/>
</g>
</svg>
