<?xml version="1.0" encoding="utf-8"?>
<!-- Generator: Adobe Illustrator 27.9.0, SVG Export Plug-In . SVG Version: 6.00 Build 0)  -->
<svg version="1.1" id="Layer_1" xmlns="http://www.w3.org/2000/svg" xmlns:xlink="http://www.w3.org/1999/xlink" x="0px" y="0px"
	 viewBox="0 0 250 250" style="enable-background:new 0 0 250 250;" xml:space="preserve">
<style type="text/css">
	.st0{fill:#FFFFFF;}
</style>
<path class="st0" d="M6.66,0.07c3.87,1.09,8.56,2.38,13.23,3.72c40.09,11.5,80.2,22.96,120.27,34.53
	c34.51,9.96,68.98,20.05,103.46,30.09c6.11,1.78,6.91,4.57,2.2,9.21c-8.09,7.97-16.49,15.62-24.65,23.52
	c-18.84,18.23-37.58,36.55-56.41,54.79c-11.99,11.62-24.06,23.15-36.1,34.73c-12.2,11.73-24.38,23.5-36.61,35.19
	c-7.37,7.05-14.84,13.99-22.26,20.98c-0.17,0.16-0.33,0.33-0.5,0.48c-4.86,4.3-7.25,3.52-8.99-2.98c-0.78-2.91-1.44-5.85-2.17-8.77
	c-5.93-23.84-11.88-47.67-17.78-71.52C31.06,126.48,21.8,88.92,12.53,51.35C8.98,36.96,5.44,22.56,1.91,8.17
	C1.63,7.04,1.37,5.91,1.22,4.76C0.74,1.07,2.12-0.35,6.66,0.07z M104.09,204.14c-17.21-4.91-32.78-9.35-49.77-14.19
	c4.28,17.39,8.19,33.28,12.26,49.82C79.2,227.77,91.05,216.52,104.09,204.14z M21.6,57.72c12.5-12.3,24.06-23.66,36.16-35.56
	c-8.6-2.54-16.26-5.12-24.08-7.03C25.81,13.21,18.27,9.7,9.4,9.11C13.51,25.5,17.42,41.07,21.6,57.72z M157.01,152.23
	c13.46-10.88,24.12-22.63,36.25-34.69c-16.34-5.05-31.62-9.43-48.3-13.78C149.12,120.46,152.94,135.85,157.01,152.23z M89.5,137.23
	c-0.74-9.2-3.45-16.76-5.35-24.47c-1.95-7.9-3.29-16-6.7-24.49c-11.12,12.85-24.68,21.95-35.33,35.17
	C58.11,128.1,73.27,132.51,89.5,137.23z M101.53,140.63c16,4.59,31.63,9.08,48.46,13.91c-4.12-16.89-7.98-32.76-12.05-49.44
	C125.35,117.4,113.66,128.8,101.53,140.63z M190.23,60.29c4.1,16.89,7.89,32.52,12.01,49.52c12.44-12.24,24.04-23.64,36.29-35.7
	C222.52,69.53,207.03,65.1,190.23,60.29z M73.18,82.89C56.57,78.06,41,73.53,24.31,68.68c4.17,16.83,8.06,32.53,12.18,49.14
	C48.9,106.01,60.54,94.92,73.18,82.89z M63.11,28.89c-10.31,7.07-31.96,28.5-33.98,33.73c14.74,4.41,29.42,8.9,44.49,12.63
	C73.98,69.41,67.69,42.16,63.11,28.89z M39.3,130.03c4.23,16.92,8.07,32.31,12.21,48.91C62.7,166.02,76.23,157,86.73,143.83
	C70.72,139.17,55.69,134.8,39.3,130.03z M148.35,97.06c15.67,4.48,30.7,8.78,46.78,13.37c-4.05-16.17-7.86-31.42-11.72-46.84
	C177.78,66.17,153.73,89.26,148.35,97.06z M57.59,182.77c13.64,5.51,42.31,13.15,47.04,12.54c-3.75-15.39-7.5-30.75-11.41-46.78
	C80.97,160.3,69.41,171.41,57.59,182.77z M70.04,25.77c4.17,16.66,8.03,32.09,12.12,48.41c11.58-12.55,24.63-21.85,35.33-34.88
	C101.48,34.74,86.31,30.41,70.04,25.77z M130.67,43.08c2.97,19.05,9.34,42.95,12.37,47.19c10.96-11.21,21.94-22.43,33.17-33.92
	C161.61,52.09,146.64,47.73,130.67,43.08z M112.2,195.49c12.36-11.56,24.56-21.77,35.34-34c-15.66-4.85-30.6-9.19-46.91-13.52
	C104.03,164.59,108.12,179.56,112.2,195.49z M133.16,100.07c-6.27-1.85-11.31-3.37-16.36-4.82c-5.1-1.47-10.18-3.05-15.34-4.26
	c-5.01-1.17-9.6-4.42-16-3.45c3.88,15.56,7.64,30.63,11.67,46.77C109.44,122.62,120.9,111.72,133.16,100.07z M133.27,92.27
	c0.57-6.49-8.29-41.83-11.51-46.45c-5.61,5.56-11.32,10.95-16.71,16.63C99.6,68.2,92.4,72.2,87.59,79.52
	C103.18,83.77,117.99,88.61,133.27,92.27z"/>
</svg>
