<?xml version="1.0" encoding="utf-8"?>
<!-- Generator: Adobe Illustrator 27.9.0, SVG Export Plug-In . SVG Version: 6.00 Build 0)  -->
<svg version="1.1" id="Layer_1" xmlns="http://www.w3.org/2000/svg" xmlns:xlink="http://www.w3.org/1999/xlink" x="0px" y="0px"
	 viewBox="0 0 250 250" style="enable-background:new 0 0 250 250;" xml:space="preserve">
<style type="text/css">
	.st0{fill:#FFFFFF;}
</style>
<path class="st0" d="M0,228.8C0,159.6,0,90.4,0,21.2c0.17-0.52,0.39-1.03,0.5-1.55C1.95,13.22,5.25,7.92,10.86,4.49
	C13.94,2.59,17.6,1.63,21,0.24c69.34,0,138.67,0,208.01,0c0.36,0.15,0.7,0.37,1.08,0.44c6.68,1.29,12.11,4.67,15.67,10.4
	c1.91,3.07,2.87,6.73,4.25,10.12c0,69.2,0,138.4,0,207.6c-0.1,0.12-0.26,0.23-0.3,0.37c-3.53,13.97-12.01,20.59-26.38,20.59
	c-65.54,0-131.09,0-196.63,0c-0.98,0-1.95,0.01-2.93-0.02c-10.13-0.28-19.02-6.76-22.36-16.35C0.88,231.88,0.47,230.33,0,228.8z
	 M224.65,143.1c0-7.15-0.08-13.8,0.05-20.46c0.03-1.81-0.61-2.53-2.25-3.04c-10.24-3.18-20.73-4-31.35-3.12
	c-7.58,0.62-14.9,2.27-21.66,6.04c-20.05,11.19-18.81,36.94-5.62,48.02c4.23,3.55,9.23,6.3,14.14,8.93
	c5.78,3.09,11.95,5.47,17.75,8.55c2.28,1.21,4.34,3.23,5.89,5.33c3.46,4.67,2.19,10.46-2.83,13.4c-2.06,1.2-4.44,2.14-6.79,2.52
	c-12.67,2.02-24.18-1.01-34.58-8.41c-0.77-0.54-1.52-1.1-2.63-1.91c0,7.06,0,13.69,0,20.31c0,4.21-0.03,4.29,3.88,5.64
	c15.66,5.4,31.59,6.06,47.53,1.76c10.58-2.85,19-8.93,21.95-20.08c3.96-14.95-0.03-27.23-12.8-35.75c-2.16-1.44-4.42-2.76-6.75-3.88
	c-4.98-2.39-10.05-4.57-15.05-6.91c-4.2-1.97-8.39-4-11.3-7.83c-2.98-3.92-2.62-8.82,1.11-12.01c1.5-1.29,3.37-2.28,5.23-2.99
	c5.07-1.93,10.37-1.84,15.66-1.22C211.4,136.79,218.13,139.02,224.65,143.1z M144.9,138.65c0-6.82,0-13.28,0-19.85
	c-29.11,0-58.1,0-87.12,0c0,6.67,0,13.19,0,19.91c10.38,0,20.6,0,31.1,0c0,29.78,0,59.36,0,88.97c8.38,0,16.48,0,24.88,0
	c0-29.71,0-59.29,0-89.04C124.28,138.65,134.5,138.65,144.9,138.65z"/>
</svg>
