<svg width="60" height="60" viewBox="0 0 60 60" fill="none" xmlns="http://www.w3.org/2000/svg">
<rect width="60" height="60" rx="30" fill="black"/>
<rect x="6" y="6" width="48" height="48" rx="24" fill="white"/>
<path d="M16.7188 44C15.9375 44 15.5469 43.6094 15.5469 42.8281V24.6641C15.5469 23.8828 15.9375 23.4922 16.7188 23.4922H19.8438C20.625 23.4922 21.0156 23.8828 21.0156 24.6641V42.8281C21.0156 43.6094 20.625 44 19.8438 44H16.7188ZM16.7188 20.4844C15.9375 20.4844 15.5469 20.0938 15.5469 19.3125V16.8125C15.5469 16.0312 15.9375 15.6406 16.7188 15.6406H19.8438C20.625 15.6406 21.0156 16.0312 21.0156 16.8125V19.3125C21.0156 20.0938 20.625 20.4844 19.8438 20.4844H16.7188ZM27.5 44C26.7188 44 26.3281 43.6094 26.3281 42.8281V24.6641C26.3281 23.8828 26.7188 23.4922 27.5 23.4922H30.5859C31.3672 23.4922 31.7578 23.8828 31.7578 24.6641V25.7969H31.8359C32.4349 24.7682 33.1966 24.0651 34.1211 23.6875C35.0456 23.2969 36.1589 23.1016 37.4609 23.1016C39.4922 23.1016 41.1719 23.7396 42.5 25.0156C43.8281 26.2917 44.4922 28.6224 44.4922 32.0078V42.8281C44.4922 43.6094 44.1016 44 43.3203 44H40.1953C39.4141 44 39.0234 43.6094 39.0234 42.8281V33.4141C39.0234 30.5755 38.8281 28.7852 38.4375 28.043C38.0469 27.3008 37.207 26.9297 35.918 26.9297C34.5508 26.9297 33.5221 27.4635 32.832 28.5312C32.1419 29.5859 31.7969 31.7865 31.7969 35.1328V42.8281C31.7969 43.6094 31.4062 44 30.625 44H27.5Z" fill="black"/>
</svg>
