<svg width="86" height="86" viewBox="0 0 86 86" fill="none" xmlns="http://www.w3.org/2000/svg">
<rect x="14" y="11" width="59" height="64" fill="white"/>
<path d="M42.6667 0C19.1022 0 0 19.1022 0 42.6667C0 66.2311 19.1022 85.3333 42.6667 85.3333C66.2311 85.3333 85.3333 66.2311 85.3333 42.6667C85.3333 19.1022 66.2311 0 42.6667 0ZM42.6667 14.2222C58.3769 14.2222 71.1111 26.9564 71.1111 42.6667C71.1111 58.3769 58.3769 71.1111 42.6667 71.1111C26.9564 71.1111 14.2222 58.3769 14.2222 42.6667C14.2222 26.9564 26.9564 14.2222 42.6667 14.2222ZM57.125 28.8194C56.313 28.7259 55.2928 28.947 54.1528 29.3576C52.0692 30.1079 25.4371 41.4152 23.8993 42.0694C22.4415 42.6899 21.0625 43.3659 21.0625 44.3472C21.0625 45.0352 21.4719 45.4211 22.5972 45.8229C23.7688 46.2407 26.7196 47.1346 28.4618 47.6146C30.14 48.0768 32.0478 47.6753 33.1181 47.0104C34.2523 46.3046 47.3495 37.5423 48.2882 36.7743C49.2269 36.0063 49.9763 36.9924 49.2083 37.7604C48.4403 38.5284 39.4531 47.2529 38.2674 48.4618C36.8274 49.9285 37.8472 51.4458 38.8125 52.0556C39.9147 52.7507 47.847 58.0703 49.0417 58.9236C50.2363 59.7787 51.4444 60.1632 52.5556 60.1632C53.6667 60.1632 54.2492 58.7029 54.8021 57.0069C55.4474 55.0229 58.4808 35.2389 58.8542 31.3403C58.9662 30.1598 58.5953 29.3711 57.8646 29.0208C57.6437 28.9146 57.3957 28.8506 57.125 28.8194Z" fill="black"/>
</svg>
