<svg width="125" height="124" viewBox="0 0 125 124" fill="none" xmlns="http://www.w3.org/2000/svg">
<circle cx="64" cy="64" r="60" fill="white"/>
<path d="M62 0C27.8 0 0 27.8 0 62C0 72.5 2.59922 82.8004 7.69922 91.9004L2.40039 111.301C1.50039 114.401 2.39922 117.6 4.69922 119.9C6.99922 122.2 10.2008 123.101 13.3008 122.301L33.5 117C42.3 121.6 52.0996 124 62.0996 124C96.2996 124 124.1 96.2 124.1 62C124.1 45.4 117.7 29.8992 106 18.1992C94.2 6.49922 78.6 0 62 0ZM62 6C77 6 91.0996 11.8004 101.6 22.4004C112.2 33.0004 118.1 47.1 118 62C118 92.9 92.9 118 62 118C52.7 118 43.3992 115.599 35.1992 111.199C34.7992 110.999 34.3008 110.801 33.8008 110.801C33.5008 110.801 33.3 110.8 33 110.9L11.6992 116.5C10.1992 116.9 9.20078 116.099 8.80078 115.699C8.40078 115.299 7.6 114.301 8 112.801L13.5996 92.1992C13.7996 91.3992 13.7008 90.6004 13.3008 89.9004C8.50078 81.5004 6 71.8 6 62C6 31.1 31.1 6 62 6ZM62 15C36.1 15 15 36 15 62C15 70.3 17.2008 78.4 21.3008 85.5C22.9008 88.3 23.3 91.5992 22.5 94.6992L19.5996 105.199L30.8008 102.301C31.8008 102.001 32.8008 101.9 33.8008 101.9C35.8008 101.9 37.8 102.4 39.5 103.4C46.4 107 54.1 109 62 109C87.9 109 109 87.9 109 62C109 49.4 104.099 37.5992 95.1992 28.6992C86.3992 19.8992 74.6 15 62 15ZM41.0996 34.6992H43.9004C45.0004 34.6992 46.0992 34.7992 47.1992 37.1992C48.4992 40.0992 51.3992 47.3996 51.6992 48.0996C52.0992 48.7996 52.3008 49.6992 51.8008 50.6992C51.3008 51.6992 51.1008 52.2992 50.3008 53.1992C49.6008 54.0992 48.6996 55.1008 48.0996 55.8008C47.3996 56.5008 46.6 57.3008 47.5 58.8008C48.4 60.3008 51.2992 65.1 55.6992 69C61.2992 74 66.0996 75.6008 67.5996 76.3008C69.0996 77.0008 69.9008 76.9004 70.8008 75.9004C71.7008 74.9004 74.5 71.5996 75.5 70.0996C76.5 68.5996 77.5008 68.9004 78.8008 69.4004C80.2008 69.9004 87.4004 73.4992 88.9004 74.1992C90.4004 74.8992 91.3992 75.3004 91.6992 75.9004C92.0992 76.7004 92.1004 79.5996 90.9004 83.0996C89.7004 86.4996 83.7004 89.8996 80.9004 90.0996C78.2004 90.2996 75.6992 91.3004 63.1992 86.4004C48.1992 80.5004 38.7 65.0996 38 64.0996C37.3 63.0996 32 56.1008 32 48.8008C32 41.5008 35.7992 38 37.1992 36.5C38.5992 35 40.0996 34.6992 41.0996 34.6992Z" fill="black"/>
</svg>
